<svg width="20" height="20" viewBox="0 0 20 20" fill="none" xmlns="http://www.w3.org/2000/svg">
<path d="M1.66669 18.3334L13.3334 6.66675" stroke="#D76F30" stroke-width="1.66667" stroke-linecap="round" stroke-linejoin="round"/>
<path d="M2.89172 10.4417L4.16672 9.16675L5.44172 10.4417C5.98622 10.9884 6.29194 11.7285 6.29194 12.5001C6.29194 13.2716 5.98622 14.0118 5.44172 14.5584L4.16672 15.8334L2.89172 14.5584C2.34722 14.0118 2.0415 13.2716 2.0415 12.5001C2.0415 11.7285 2.34722 10.9884 2.89172 10.4417Z" stroke="#D76F30" stroke-width="1.66667" stroke-linecap="round" stroke-linejoin="round"/>
<path d="M6.22504 7.10825L7.50004 5.83325L8.77503 7.10825C9.31954 7.6549 9.62525 8.39503 9.62525 9.16659C9.62525 9.93815 9.31954 10.6783 8.77503 11.2249L7.50004 12.4999L6.22504 11.2249C5.68053 10.6783 5.37482 9.93815 5.37482 9.16659C5.37482 8.39503 5.68053 7.6549 6.22504 7.10825Z" stroke="#D76F30" stroke-width="1.66667" stroke-linecap="round" stroke-linejoin="round"/>
<path d="M9.55829 3.775L10.8333 2.5L12.1083 3.775C12.6528 4.32165 12.9585 5.06177 12.9585 5.83333C12.9585 6.60489 12.6528 7.34502 12.1083 7.89167L10.8333 9.16667L9.55829 7.89167C9.01379 7.34502 8.70807 6.60489 8.70807 5.83333C8.70807 5.06177 9.01379 4.32165 9.55829 3.775Z" stroke="#D76F30" stroke-width="1.66667" stroke-linecap="round" stroke-linejoin="round"/>
<path d="M16.6666 1.66663H18.3333V3.33329C18.3333 4.21735 17.9821 5.06519 17.357 5.69032C16.7319 6.31544 15.884 6.66663 15 6.66663H13.3333V4.99996C13.3333 4.1159 13.6845 3.26806 14.3096 2.64294C14.9347 2.01782 15.7826 1.66663 16.6666 1.66663Z" stroke="#D76F30" stroke-width="1.66667" stroke-linecap="round" stroke-linejoin="round"/>
<path d="M9.55835 14.5582L10.8334 15.8332L9.55835 17.1082C9.01171 17.6527 8.27158 17.9584 7.50002 17.9584C6.72846 17.9584 5.98833 17.6527 5.44169 17.1082L4.16669 15.8332L5.44169 14.5582C5.98833 14.0137 6.72846 13.708 7.50002 13.708C8.27158 13.708 9.01171 14.0137 9.55835 14.5582Z" stroke="#D76F30" stroke-width="1.66667" stroke-linecap="round" stroke-linejoin="round"/>
<path d="M12.8917 11.225L14.1667 12.5L12.8917 13.775C12.345 14.3195 11.6049 14.6252 10.8333 14.6252C10.0618 14.6252 9.32165 14.3195 8.775 13.775L7.5 12.5L8.775 11.225C9.32165 10.6805 10.0618 10.3748 10.8333 10.3748C11.6049 10.3748 12.345 10.6805 12.8917 11.225Z" stroke="#D76F30" stroke-width="1.66667" stroke-linecap="round" stroke-linejoin="round"/>
<path d="M16.225 7.89172L17.5 9.16672L16.225 10.4417C15.6783 10.9862 14.9382 11.2919 14.1666 11.2919C13.3951 11.2919 12.655 10.9862 12.1083 10.4417L10.8333 9.16672L12.1083 7.89172C12.655 7.34722 13.3951 7.0415 14.1666 7.0415C14.9382 7.0415 15.6783 7.34722 16.225 7.89172Z" stroke="#D76F30" stroke-width="1.66667" stroke-linecap="round" stroke-linejoin="round"/>
</svg>
